#define pause_width 16
#define pause_height 16
static unsigned char pause_bits[] = {
   0x00, 0x00, 0x00, 0x00, 0x00, 0x00, 0x7c, 0x3e, 0x7c, 0x3e, 0x6c, 0x36,
   0x6c, 0x36, 0x6c, 0x36, 0x6c, 0x36, 0x6c, 0x36, 0x6c, 0x36, 0x7c, 0x3e,
   0x7c, 0x3e, 0x00, 0x00, 0x00, 0x00, 0x00, 0x00 };
