#define dp_width 15
#define dp_height 15
static unsigned char dp_bits[] = {
   0x00, 0x00, 0xff, 0x7f, 0x81, 0x40, 0x81, 0x40, 0x81, 0x40, 0x81, 0x40,
   0x81, 0x40, 0x81, 0x40, 0x81, 0x40, 0x81, 0x40, 0x81, 0x40, 0x81, 0x40,
   0x81, 0x40, 0xff, 0x7f, 0x00, 0x00 };
