#define tall_width 15
#define tall_height 15
static unsigned char tall_bits[] = {
   0x00, 0x00, 0xff, 0x7f, 0x01, 0x42, 0x01, 0x42, 0x01, 0x42, 0x01, 0x7e,
   0x01, 0x42, 0x01, 0x42, 0x01, 0x42, 0x01, 0x7e, 0x01, 0x42, 0x01, 0x42,
   0x01, 0x42, 0xff, 0x7f, 0x00, 0x00 };
