#define three_width 15
#define three_height 15
static unsigned char three_bits[] = {
   0x00, 0x00, 0xfc, 0x7f, 0x44, 0x44, 0x44, 0x44, 0x44, 0x44, 0x44, 0x44,
   0x44, 0x44, 0x44, 0x44, 0x44, 0x44, 0x44, 0x44, 0x44, 0x44, 0x44, 0x44,
   0x44, 0x44, 0xfc, 0x7f, 0x00, 0x00 };
